<?xml version="1.0" encoding="UTF-8" standalone="no" ?><!DOCTYPE svg PUBLIC "-//W3C//DTD SVG 1.1//EN" "http://www.w3.org/Graphics/SVG/1.1/DTD/svg11.dtd">
<svg xmlns="http://www.w3.org/2000/svg" xmlns:xlink="http://www.w3.org/1999/xlink" version="1.1" width="800" height="500" xml:space="preserve"><desc>Created with Fabric.js 1.5.0</desc><defs></defs><g style="stroke: none; stroke-width: 1; stroke-dasharray: ; stroke-linecap: butt; stroke-linejoin: miter; stroke-miterlimit: 10; fill: #090a09; fill-rule: nonzero; opacity: 1;" transform="translate(254.21000000000004 0) scale(3.29 3.6)" >
<path d="M 83.2 32.4 C 82.1 22.1 78.066 14.767 71.1 10.4 S 56.45 3.917 48.05 4.05 C 41.35 4.25 35.483 6 30.45 9.3 C 25.417 12.6 21.6 16.217 19 20.15 c -3 3.8 -4.85 8.5 -5.55 14.1 c 0.033 0.667 0.15 1.467 0.35 2.4 c 0.333 1.267 0.5 2.65 0.5 4.15 c -0.7 2.8 -2.083 5.267 -4.15 7.4 C 9.683 48.633 9.3 49.083 9 49.55 c -1.1 1.434 -2.067 2.667 -2.9 3.7 c -0.667 0.733 -1.434 1.7 -2.3 2.9 c 0.434 0.267 1.05 0.533 1.85 0.8 C 6.85 57.217 8 57.833 9.1 58.8 c 0.367 0.366 0.55 0.784 0.55 1.25 c -0.033 2.3 -0.483 3.833 -1.35 4.601 L 8.15 64.8 c 0.5 0.2 1.05 0.583 1.65 1.15 c 0.6 0.634 0.667 1.399 0.2 2.3 c -0.367 0.533 -0.667 0.95 -0.9 1.25 c -0.067 0.1 -0.15 0.184 -0.25 0.25 c 0.133 0.2 0.333 0.383 0.6 0.55 c 0.7 0.467 1.233 1.517 1.6 3.15 c 0.034 1.7 -0.267 3.083 -0.9 4.149 c -0.467 0.768 -0.7 1.417 -0.7 1.95 c -0.034 2.034 2.767 3.101 8.4 3.2 c 0.933 0.1 1.816 0.184 2.65 0.25 c 6.033 0.733 11.417 3.65 16.15 8.75 c 4.5 5.1 6.8 10.483 6.9 16.15 c 0.167 1.133 -0.367 1.75 -1.6 1.85 c -1.267 -0.133 -1.967 -0.834 -2.1 -2.1 c -0.2 -4.934 -2.2 -9.45 -6 -13.551 c -3.8 -4.133 -8.25 -6.566 -13.35 -7.3 c -0.767 -0.066 -1.617 -0.149 -2.55 -0.25 c -2.6 -0.033 -5.05 -0.417 -7.35 -1.149 c -3.467 -1.7 -5.083 -3.7 -4.85 -6 c 0.067 -1.566 0.417 -2.867 1.05 -3.9 c 0.467 -0.8 0.65 -1.416 0.55 -1.85 c 0.1 -0.234 -0.05 -0.467 -0.45 -0.7 c -0.667 -0.4 -1.316 -1.4 -1.95 -3 c -0.133 -0.3 -0.133 -0.684 0 -1.15 c 0.133 -0.566 0.316 -1.017 0.55 -1.35 c -0.833 -0.5 -1.333 -1.467 -1.5 -2.9 c 0 -0.233 0.05 -0.466 0.15 -0.7 C 4.517 63.084 4.9 62.467 5.3 62 c 0.3 -0.367 0.483 -0.666 0.55 -0.9 C 5.483 60.9 5.067 60.75 4.6 60.65 C 2.467 60.316 0.967 59 0.1 56.7 c -0.3 -0.9 -0.033 -1.934 0.8 -3.1 c 1 -1.233 1.817 -2.233 2.45 -3 c 0.8 -1 1.717 -2.184 2.75 -3.55 c 0.367 -0.466 0.75 -0.966 1.15 -1.5 c 1.7 -1.767 2.783 -3.533 3.25 -5.3 c 0.033 -0.867 -0.083 -1.833 -0.35 -2.9 c -0.3 -1.167 -0.467 -2.317 -0.5 -3.45 c 0.833 -6.633 2.917 -11.983 6.25 -16.05 c 2.9 -4.367 7.15 -8.383 12.75 -12.05 C 34.25 2.167 40.8 0.233 48.3 0 c 10.434 0.067 19.184 2.683 26.25 7.85 c 7.767 5.8 12.083 13.9 12.95 24.3 c 0.066 0.967 0.1 2.05 0.1 3.25 c 0 1.133 -0.033 1.934 -0.1 2.4 c -1.267 6.9 -3.733 12.367 -7.4 16.4 c -1.866 2.4 -3.516 5.05 -4.949 7.95 c -0.601 1.434 -1.134 3.116 -1.601 5.05 c -0.466 1.767 -0.966 3.3 -1.5 4.6 c -0.134 0.9 -1.25 2.817 -3.35 5.75 c -2.067 2.934 -5.3 4.601 -9.7 5 c -7.7 0.366 -11.316 -2.25 -10.85 -7.85 V 64 c 0.133 -1.3 0.833 -2 2.1 -2.1 c 1.267 0.133 1.95 0.833 2.05 2.1 v 10.7 c 0.034 1.767 0.267 2.733 0.7 2.899 c 0.733 0.434 1.767 0.7 3.1 0.801 c 1.334 0.1 2.334 0.133 3 0.1 c 3.167 -0.334 5.5 -1.684 7 -4.05 s 2.25 -3.75 2.25 -4.15 v -0.1 c 0.467 -1.101 0.884 -2.483 1.25 -4.15 c 0.566 -2 1.184 -3.884 1.851 -5.649 c 1.6 -3.234 3.366 -6.117 5.3 -8.65 c 3.467 -3.833 5.666 -8.717 6.6 -14.65 c 0 -0.067 0 -0.133 0 -0.2 C 83.35 35.667 83.3 34.167 83.2 32.4 z M 85.65 35.4 c -1.066 0.1 -1.717 0.6 -1.95 1.5 C 84 35.933 84.65 35.433 85.65 35.4 z" style="stroke: none; stroke-width: 1; stroke-dasharray: ; stroke-linecap: butt; stroke-linejoin: miter; stroke-miterlimit: 10; fill: #090a09; fill-rule: evenodd; opacity: 1;" transform="" stroke-linecap="round" />
<path d="M 55.75 60.6 H 45 c -0.767 -0.1 -1.183 -0.533 -1.25 -1.3 c 0.067 -0.767 0.483 -1.183 1.25 -1.25 h 10.75 c 0.767 0.067 1.184 0.483 1.25 1.25 C 56.867 60.133 56.45 60.566 55.75 60.6 z" style="stroke: none; stroke-width: 1; stroke-dasharray: ; stroke-linecap: butt; stroke-linejoin: miter; stroke-miterlimit: 10; fill: #090a09; fill-rule: evenodd; opacity: 1;" transform="" stroke-linecap="round" />
<path d="M 53.4 40.9 c -2.367 -0.467 -4.4 -0.467 -6.101 0 c 0.3 0.867 0.75 2.65 1.351 5.35 c 0.6 2.7 0.967 5.683 1.1 8.95 v 0.1 H 51 c 0.133 -3.333 0.5 -6.367 1.1 -9.1 C 52.666 43.467 53.1 41.7 53.4 40.9 z M 63.2 34.55 c -0.067 -3.7 -1.333 -6.8 -3.8 -9.3 C 56.9 22.783 53.8 21.5 50.1 21.4 c -3.732 0.1 -6.833 1.383 -9.3 3.85 c -2.466 2.467 -3.75 5.567 -3.85 9.3 c 0.466 4.434 1.966 7.7 4.5 9.8 c 2.333 2.167 3.866 5.783 4.6 10.85 h 2.65 c -0.134 -3.267 -0.5 -6.25 -1.101 -8.95 c -0.566 -2.7 -1 -4.45 -1.3 -5.25 c -1.2 0.4 -1.816 0.633 -1.85 0.7 c -0.667 0.2 -1.217 0.017 -1.65 -0.55 c -0.2 -0.667 0 -1.217 0.6 -1.65 c 0.3 -0.233 1.766 -0.667 4.4 -1.3 c 2.601 -0.6 5.667 -0.167 9.2 1.3 c 0.666 0.367 0.85 0.917 0.55 1.65 c -0.167 0.467 -0.5 0.684 -1 0.65 c -0.2 0.034 -0.399 0 -0.6 -0.1 c -0.601 -0.233 -1.217 -0.467 -1.851 -0.7 c -0.232 0.767 -0.666 2.5 -1.3 5.2 c -0.6 2.7 -0.966 5.7 -1.1 9 h 2.649 c 0.734 -5 2.268 -8.617 4.601 -10.85 C 61.517 42.183 62.934 38.917 63.2 34.55 z M 61.3 23.55 c 2.934 2.9 4.45 6.567 4.55 11 c 0 4.2 -1.684 8.05 -5.05 11.55 c -2.233 2 -3.533 5.45 -3.899 10.35 c -0.101 0.767 -0.533 1.2 -1.301 1.3 H 45.1 c -0.766 -0.1 -1.183 -0.533 -1.25 -1.3 c -0.133 -3.133 -0.733 -5.583 -1.8 -7.35 c -1.1 -1.767 -1.8 -2.767 -2.1 -3 c -3.467 -3.5 -5.2 -7.35 -5.2 -11.55 c 0.1 -4.433 1.633 -8.1 4.6 -11 c 2.933 -2.933 6.583 -4.45 10.95 -4.55 C 54.7 19.1 58.367 20.617 61.3 23.55 z" style="stroke: none; stroke-width: 1; stroke-dasharray: ; stroke-linecap: butt; stroke-linejoin: miter; stroke-miterlimit: 10; fill: #090a09; fill-rule: evenodd; opacity: 1;" transform="" stroke-linecap="round" />
<path d="M 50.301 65.55 c -3.867 -0.533 -5.667 -1.649 -5.4 -3.351 c 0 -0.199 0.117 -0.416 0.35 -0.649 c 0.234 -0.2 0.533 -0.283 0.9 -0.25 h 8.45 c 0.366 0.033 0.667 0.116 0.899 0.25 c 0.234 0.2 0.351 0.417 0.351 0.649 C 56.018 63.9 54.167 65.017 50.301 65.55 z" style="stroke: none; stroke-width: 1; stroke-dasharray: ; stroke-linecap: butt; stroke-linejoin: miter; stroke-miterlimit: 10; fill: #090a09; fill-rule: evenodd; opacity: 1;" transform="" stroke-linecap="round" />
<path d="M 47.35 111.1 c 0 0.234 -0.116 0.467 -0.35 0.7 c -0.233 0.134 -0.533 0.2 -0.9 0.2 h -1.5 v 4.05 c -0.033 0.267 -0.232 0.417 -0.6 0.45 h -0.35 c -0.367 -0.033 -0.55 -0.184 -0.55 -0.45 V 112 h -2.45 v 4.05 c 0 0.267 -0.183 0.417 -0.55 0.45 h -0.35 c -0.367 -0.033 -0.567 -0.184 -0.6 -0.45 V 112 h -1.5 c -0.367 0.033 -0.667 -0.033 -0.9 -0.2 c -0.233 -0.233 -0.35 -0.466 -0.35 -0.7 c -0.267 -1.699 1.533 -2.816 5.4 -3.35 C 45.666 108.283 47.517 109.4 47.35 111.1 z" style="stroke: none; stroke-width: 1; stroke-dasharray: ; stroke-linecap: butt; stroke-linejoin: miter; stroke-miterlimit: 10; fill: #090a09; fill-rule: evenodd; opacity: 1;" transform="" stroke-linecap="round" />
</g>
	<g transform="translate(384.97 461.26) scale(0.85 0.85)">
		<text font-family="Fontdiner Swanky" font-size="65" font-weight="normal" style="stroke: none; stroke-width: 1; stroke-dasharray: ; stroke-linecap: butt; stroke-linejoin: miter; stroke-miterlimit: 10; fill: #161952; fill-rule: nonzero; opacity: 1;" ><tspan x="-375.3369" y="14.599" fill="#161952">CHRISTON CARDOZA</tspan></text>
	</g>
	<g transform="translate(340.91 395.56) scale(0.85 0.85)">
		<text font-family="Abril Fatface" font-size="56" font-weight="normal" style="stroke: none; stroke-width: 1; stroke-dasharray: ; stroke-linecap: butt; stroke-linejoin: miter; stroke-miterlimit: 10; fill: rgb(198, 196, 196); fill-rule: nonzero; opacity: 1;" ><tspan x="0" y="12.5776" fill="rgb(198, 196, 196)"></tspan></text>
	</g>
</svg>